<?xml version="1.0" encoding="UTF-8"?><svg xmlns="http://www.w3.org/2000/svg" viewBox="0 0 640 128"><g id="a"/><g id="b"><g id="c"><g><rect x="1" y="1" width="638" height="126" rx="7" ry="7"/><path d="M632,2c3.31,0,6,2.69,6,6V120c0,3.31-2.69,6-6,6H8c-3.31,0-6-2.69-6-6V8c0-3.31,2.69-6,6-6H632m0-2H8C3.58,0,0,3.58,0,8V120c0,4.42,3.58,8,8,8H632c4.42,0,8-3.58,8-8V8c0-4.42-3.58-8-8-8h0Z"/></g><g><rect width="128" height="128" rx="8" ry="8" style="fill:#fff;"/><g><path d="M10.5,57.11v-4.86l30.23-14.85v6.79l-21.91,10.52,21.91,10.52v6.73l-30.23-14.85Z"/><path d="M48.01,37.4h7.27v53.21h-7.27V37.4Zm7.34,35.71l15.91-17.06h8.86l-15.98,17.06,17.64,17.5h-8.86l-17.57-17.5Z"/><path d="M87.53,83.88l21.84-10.52-21.84-10.52v-6.79l30.23,14.85v4.86l-30.23,14.85v-6.73Z"/></g></g><text transform="translate(154.2 88)" style="fill:#fff; font-family:Prompt-SemiBold, Prompt; font-size:60px;"><tspan x="0" y="0" style="letter-spacing:-.06em;">k</tspan><tspan x="32.7" y="0">ompanion.D</tspan><tspan x="380.03" y="0" style="letter-spacing:0em;">E</tspan><tspan x="413.27" y="0">V</tspan></text></g></g></svg>