<?xml version="1.0" encoding="UTF-8"?><svg xmlns="http://www.w3.org/2000/svg" viewBox="0 0 640 128"><g id="a"/><g id="b"><g id="c"><g><g><rect x="1" y="1" width="638" height="126" rx="7" ry="7"/><path d="M632,2c3.31,0,6,2.69,6,6V120c0,3.31-2.69,6-6,6H8c-3.31,0-6-2.69-6-6V8c0-3.31,2.69-6,6-6H632m0-2H8C3.58,0,0,3.58,0,8V120c0,4.42,3.58,8,8,8H632c4.42,0,8-3.58,8-8V8c0-4.42-3.58-8-8-8h0Z"/></g><g><rect width="128" height="128" rx="8" ry="8" style="fill:#fff;"/><g><path d="M10.5,57.11v-4.86l30.23-14.85v6.79l-21.91,10.52,21.91,10.52v6.73l-30.23-14.85Z"/><path d="M48.01,37.4h7.27v53.21h-7.27V37.4Zm7.34,35.71l15.91-17.06h8.86l-15.98,17.06,17.64,17.5h-8.86l-17.57-17.5Z"/><path d="M87.53,83.88l21.84-10.52-21.84-10.52v-6.79l30.23,14.85v4.86l-30.23,14.85v-6.73Z"/></g></g><g><path d="M157.32,43.66h9.06v27.72l10.5-12.18h10.5l-12.18,14.04,13.68,14.76h-10.5l-12-12.96v12.96h-9.06V43.66Z" style="fill:#fff;"/><path d="M197.01,87.01c-2.62-1.26-4.64-3.04-6.06-5.34-1.42-2.3-2.13-4.99-2.13-8.07s.71-5.66,2.13-7.98c1.42-2.32,3.44-4.12,6.06-5.4,2.62-1.28,5.67-1.92,9.15-1.92s6.47,.64,9.09,1.92c2.62,1.28,4.64,3.08,6.06,5.4,1.42,2.32,2.13,4.98,2.13,7.98s-.71,5.77-2.13,8.07c-1.42,2.3-3.43,4.08-6.03,5.34-2.6,1.26-5.64,1.89-9.12,1.89s-6.53-.63-9.15-1.89Zm14.97-7.44c1.44-1.5,2.16-3.49,2.16-5.97s-.71-4.57-2.13-6.03c-1.42-1.46-3.37-2.19-5.85-2.19s-4.44,.73-5.88,2.19c-1.44,1.46-2.16,3.47-2.16,6.03s.73,4.47,2.19,5.97c1.46,1.5,3.41,2.25,5.85,2.25s4.38-.75,5.82-2.25Z" style="fill:#fff;"/><path d="M228.54,59.2h8.46v3.48c1.24-1.4,2.68-2.48,4.32-3.24,1.64-.76,3.34-1.14,5.1-1.14,2.2,0,3.96,.35,5.28,1.05,1.32,.7,2.36,1.73,3.12,3.09,1.24-1.32,2.75-2.34,4.53-3.06,1.78-.72,3.55-1.08,5.31-1.08,3.68,0,6.31,.94,7.89,2.82,1.58,1.88,2.37,4.6,2.37,8.16v18.72h-8.64v-17.46c0-1.84-.36-3.16-1.08-3.96-.72-.8-1.88-1.2-3.48-1.2-2.24,0-4.04,.88-5.4,2.64,.08,1.28,.12,2.32,.12,3.12v16.86h-8.7v-17.76c0-1.76-.31-3.01-.93-3.75-.62-.74-1.69-1.11-3.21-1.11-2.36,0-4.46,1.34-6.3,4.02v18.6h-8.76v-28.8Z" style="fill:#fff;"/><path d="M280.92,59.2h8.76v3.18c2.92-2.72,6.52-4.08,10.8-4.08,3,0,5.65,.63,7.95,1.89,2.3,1.26,4.09,3.04,5.37,5.34,1.28,2.3,1.92,4.97,1.92,8.01s-.64,5.66-1.92,7.98c-1.28,2.32-3.07,4.13-5.37,5.43-2.3,1.3-4.95,1.95-7.95,1.95-2.04,0-3.98-.3-5.82-.9-1.84-.6-3.4-1.46-4.68-2.58v15.72h-9.06V59.2Zm23.25,20.34c1.54-1.52,2.31-3.52,2.31-6s-.77-4.46-2.31-5.94c-1.54-1.48-3.53-2.22-5.97-2.22-1.88,0-3.56,.5-5.04,1.5-1.48,1-2.54,2.32-3.18,3.96v5.46c.6,1.68,1.65,3.02,3.15,4.02,1.5,1,3.19,1.5,5.07,1.5,2.44,0,4.43-.76,5.97-2.28Z" style="fill:#fff;"/><path d="M322.95,86.23c-2.22-1.78-3.33-4.21-3.33-7.29s1.06-5.69,3.18-7.47c2.12-1.78,5.12-2.67,9-2.67,1.72,0,3.36,.18,4.92,.54,1.56,.36,2.94,.86,4.14,1.5v-.72c0-1.8-.64-3.12-1.92-3.96-1.28-.84-3.24-1.26-5.88-1.26-3.52,0-6.76,.66-9.72,1.98v-6.6c1.28-.56,2.94-1.03,4.98-1.41,2.04-.38,4.08-.57,6.12-.57,5.2,0,9.08,1.07,11.64,3.21,2.56,2.14,3.84,5.13,3.84,8.97v17.52h-8.52v-2.64c-2.44,2.36-5.72,3.54-9.84,3.54-3.52,0-6.39-.89-8.61-2.67Zm15.09-4.17c1.2-.56,2.14-1.34,2.82-2.34v-2.88c-2.04-1.36-4.28-2.04-6.72-2.04-1.68,0-2.97,.35-3.87,1.05-.9,.7-1.35,1.73-1.35,3.09,0,1.28,.44,2.26,1.32,2.94,.88,.68,2.14,1.02,3.78,1.02,1.48,0,2.82-.28,4.02-.84Z" style="fill:#fff;"/><path d="M355.92,59.2h8.76v3.54c1.32-1.48,2.89-2.59,4.71-3.33,1.82-.74,3.73-1.11,5.73-1.11,3.92,0,6.85,1.05,8.79,3.15,1.94,2.1,2.91,4.93,2.91,8.49v18.06h-9.06v-17.04c0-3.72-1.72-5.58-5.16-5.58-1.52,0-2.94,.37-4.26,1.11-1.32,.74-2.44,1.83-3.36,3.27v18.24h-9.06v-28.8Z" style="fill:#fff;"/><path d="M394.26,53.38c-.96-.92-1.44-2.08-1.44-3.48s.48-2.51,1.44-3.45c.96-.94,2.14-1.41,3.54-1.41s2.58,.47,3.54,1.41c.96,.94,1.44,2.09,1.44,3.45s-.48,2.56-1.44,3.48c-.96,.92-2.14,1.38-3.54,1.38s-2.58-.46-3.54-1.38Zm-1.02,5.82h9.12v28.8h-9.12v-28.8Z" style="fill:#fff;"/><path d="M416.01,87.01c-2.62-1.26-4.64-3.04-6.06-5.34-1.42-2.3-2.13-4.99-2.13-8.07s.71-5.66,2.13-7.98c1.42-2.32,3.44-4.12,6.06-5.4,2.62-1.28,5.67-1.92,9.15-1.92s6.47,.64,9.09,1.92c2.62,1.28,4.64,3.08,6.06,5.4,1.42,2.32,2.13,4.98,2.13,7.98s-.71,5.77-2.13,8.07c-1.42,2.3-3.43,4.08-6.03,5.34-2.6,1.26-5.64,1.89-9.12,1.89s-6.53-.63-9.15-1.89Zm14.97-7.44c1.44-1.5,2.16-3.49,2.16-5.97s-.71-4.57-2.13-6.03c-1.42-1.46-3.37-2.19-5.85-2.19s-4.44,.73-5.88,2.19c-1.44,1.46-2.16,3.47-2.16,6.03s.73,4.47,2.19,5.97c1.46,1.5,3.41,2.25,5.85,2.25s4.38-.75,5.82-2.25Z" style="fill:#fff;"/><path d="M447.54,59.2h8.76v3.54c1.32-1.48,2.89-2.59,4.71-3.33,1.82-.74,3.73-1.11,5.73-1.11,3.92,0,6.85,1.05,8.79,3.15,1.94,2.1,2.91,4.93,2.91,8.49v18.06h-9.06v-17.04c0-3.72-1.72-5.58-5.16-5.58-1.52,0-2.94,.37-4.26,1.11-1.32,.74-2.44,1.83-3.36,3.27v18.24h-9.06v-28.8Z" style="fill:#fff;"/><path d="M484.23,87.04c-.66-.64-.99-1.44-.99-2.4s.34-1.78,1.02-2.46,1.48-1.02,2.4-1.02,1.78,.34,2.46,1.02c.68,.68,1.02,1.5,1.02,2.46s-.34,1.76-1.02,2.4c-.68,.64-1.5,.96-2.46,.96s-1.77-.32-2.43-.96Z" style="fill:#fff;"/><path d="M495.18,46.06h14.58c4.56,0,8.54,.84,11.94,2.52,3.4,1.68,6.02,4.08,7.86,7.2s2.76,6.8,2.76,11.04c0,6.96-2.03,12.23-6.09,15.81-4.06,3.58-9.71,5.37-16.95,5.37h-14.1V46.06Zm14.58,34.32c4.28,0,7.56-1.2,9.84-3.6s3.42-5.72,3.42-9.96c0-2.52-.5-4.78-1.5-6.78-1-2-2.46-3.56-4.38-4.68-1.92-1.12-4.18-1.68-6.78-1.68h-6.06v26.7h5.46Z" style="fill:#fff;"/><path d="M537.36,46.06h29.1v7.62h-19.98v9.72h14.7v7.32h-14.7v9.66h19.98v7.62h-29.1V46.06Z" style="fill:#fff;"/><path d="M569.4,46.06h9.72l11.52,29.82,11.58-29.82h9.66l-16.74,41.94h-8.94l-16.8-41.94Z" style="fill:#fff;"/></g></g></g></g></svg>